<mxfile host="65bd71144e">
    <diagram id="wchiuT_AfNnw1r3C1ELz" name="Page-1">
        <mxGraphModel dx="1225" dy="1462" grid="1" gridSize="10" guides="1" tooltips="1" connect="1" arrows="1" fold="1" page="1" pageScale="1" pageWidth="850" pageHeight="1100" math="0" shadow="0">
            <root>
                <mxCell id="0"/>
                <mxCell id="1" parent="0"/>
                <mxCell id="3" value="" style="strokeWidth=1;shadow=0;dashed=0;align=center;html=1;shape=mxgraph.mockup.containers.browserWindow;rSize=0;strokeColor=#666666;strokeColor2=#008cff;strokeColor3=#c4c4c4;mainText=,;recursiveResize=0;" vertex="1" parent="1">
                    <mxGeometry x="200" y="170" width="1170" height="710" as="geometry"/>
                </mxCell>
                <mxCell id="4" value="Page 1" style="strokeWidth=1;shadow=0;dashed=0;align=center;html=1;shape=mxgraph.mockup.containers.anchor;fontSize=17;fontColor=#666666;align=left;" vertex="1" parent="3">
                    <mxGeometry x="60" y="12" width="110" height="26" as="geometry"/>
                </mxCell>
                <mxCell id="5" value="https://www.draw.io" style="strokeWidth=1;shadow=0;dashed=0;align=center;html=1;shape=mxgraph.mockup.containers.anchor;rSize=0;fontSize=17;fontColor=#666666;align=left;" vertex="1" parent="3">
                    <mxGeometry x="130" y="60" width="250" height="26" as="geometry"/>
                </mxCell>
                <mxCell id="6" value="Logo" style="rounded=1;whiteSpace=wrap;html=1;" vertex="1" parent="3">
                    <mxGeometry x="40" y="130" width="100" height="40" as="geometry"/>
                </mxCell>
                <mxCell id="9" value="" style="strokeWidth=1;shadow=0;dashed=0;align=center;html=1;shape=mxgraph.mockup.text.rrect;rSize=0;strokeColor=#666666;container=0;" vertex="1" parent="3">
                    <mxGeometry x="160" y="130" width="390" height="40" as="geometry"/>
                </mxCell>
                <mxCell id="14" value="" style="group" vertex="1" connectable="0" parent="3">
                    <mxGeometry x="160" y="130" width="390" height="40" as="geometry"/>
                </mxCell>
                <mxCell id="10" value="Phòng ban" style="strokeWidth=1;shadow=0;dashed=0;align=center;html=1;shape=mxgraph.mockup.text.rrect;rSize=0;fontSize=17;" vertex="1" parent="14">
                    <mxGeometry x="130" width="130" height="40" as="geometry"/>
                </mxCell>
                <mxCell id="11" value="Bảng lương" style="strokeWidth=1;shadow=0;dashed=0;align=center;html=1;shape=mxgraph.mockup.text.rrect;rSize=0;fontSize=17;" vertex="1" parent="14">
                    <mxGeometry x="260" width="130" height="40" as="geometry"/>
                </mxCell>
                <mxCell id="13" value="Nhân viên" style="strokeWidth=1;shadow=0;dashed=0;align=center;html=1;shape=mxgraph.mockup.text.rrect;rSize=0;fontSize=17;fontColor=#ffffff;fillColor=#008cff;strokeColor=#008cff;" vertex="1" parent="14">
                    <mxGeometry width="130" height="40" as="geometry"/>
                </mxCell>
                <mxCell id="15" value="Nhân viên" style="text;strokeColor=none;fillColor=none;html=1;fontSize=24;fontStyle=1;verticalAlign=middle;align=center;" vertex="1" parent="3">
                    <mxGeometry x="30" y="190" width="150" height="40" as="geometry"/>
                </mxCell>
                <mxCell id="16" value="Search" style="strokeWidth=1;shadow=0;dashed=0;align=center;html=1;shape=mxgraph.mockup.forms.searchBox;strokeColor=#999999;mainText=;strokeColor2=#008cff;fontColor=#666666;fontSize=17;align=left;spacingLeft=3;" vertex="1" parent="3">
                    <mxGeometry x="50" y="240" width="150" height="30" as="geometry"/>
                </mxCell>
                <mxCell id="23" value="" style="group" vertex="1" connectable="0" parent="3">
                    <mxGeometry x="36.4" y="280" width="143.6" height="160" as="geometry"/>
                </mxCell>
                <mxCell id="22" value="" style="shape=ext;double=1;rounded=0;whiteSpace=wrap;html=1;fontSize=18;" vertex="1" parent="23">
                    <mxGeometry width="143.6" height="160" as="geometry"/>
                </mxCell>
                <mxCell id="19" value="" style="verticalLabelPosition=bottom;shadow=0;dashed=0;align=center;html=1;verticalAlign=top;strokeWidth=1;shape=mxgraph.mockup.containers.userMale;strokeColor=#666666;strokeColor2=#008cff;" vertex="1" parent="23">
                    <mxGeometry x="19.200000000000003" y="10" width="96" height="100" as="geometry"/>
                </mxCell>
                <mxCell id="33" value="" style="group" vertex="1" connectable="0" parent="23">
                    <mxGeometry x="9.600000000000001" y="10" width="124.80000000000001" height="140" as="geometry"/>
                </mxCell>
                <mxCell id="20" value="&lt;font style=&quot;font-size: 18px&quot;&gt;Nguyễn Văn A&lt;/font&gt;" style="text;strokeColor=none;fillColor=none;html=1;fontSize=24;fontStyle=1;verticalAlign=middle;align=center;" vertex="1" parent="33">
                    <mxGeometry y="110" width="124.8" height="30" as="geometry"/>
                </mxCell>
                <mxCell id="32" value="" style="verticalLabelPosition=bottom;shadow=0;dashed=0;align=center;html=1;verticalAlign=top;strokeWidth=1;shape=mxgraph.mockup.containers.userMale;strokeColor=#666666;strokeColor2=#008cff;" vertex="1" parent="33">
                    <mxGeometry x="9.600000000000016" width="96" height="100" as="geometry"/>
                </mxCell>
                <mxCell id="79" style="edgeStyle=none;html=1;exitX=1;exitY=0;exitDx=0;exitDy=0;entryX=1;entryY=0.25;entryDx=0;entryDy=0;fontSize=18;" edge="1" parent="33" source="20" target="20">
                    <mxGeometry relative="1" as="geometry"/>
                </mxCell>
                <mxCell id="24" value="" style="group" vertex="1" connectable="0" parent="3">
                    <mxGeometry x="220" y="280" width="143.6" height="160" as="geometry"/>
                </mxCell>
                <mxCell id="25" value="" style="shape=ext;double=1;rounded=0;whiteSpace=wrap;html=1;fontSize=18;" vertex="1" parent="24">
                    <mxGeometry width="143.6" height="160" as="geometry"/>
                </mxCell>
                <mxCell id="26" value="" style="verticalLabelPosition=bottom;shadow=0;dashed=0;align=center;html=1;verticalAlign=top;strokeWidth=1;shape=mxgraph.mockup.containers.userMale;strokeColor=#666666;strokeColor2=#008cff;" vertex="1" parent="24">
                    <mxGeometry x="19.200000000000003" y="10" width="96" height="100" as="geometry"/>
                </mxCell>
                <mxCell id="27" value="&lt;font style=&quot;font-size: 18px&quot;&gt;Nguyễn Văn A&lt;/font&gt;" style="text;strokeColor=none;fillColor=none;html=1;fontSize=24;fontStyle=1;verticalAlign=middle;align=center;" vertex="1" parent="24">
                    <mxGeometry x="9.600000000000001" y="120" width="124.8" height="30" as="geometry"/>
                </mxCell>
                <mxCell id="84" value="" style="group" vertex="1" connectable="0" parent="3">
                    <mxGeometry x="600" y="280" width="143.6" height="160" as="geometry"/>
                </mxCell>
                <mxCell id="85" value="" style="shape=ext;double=1;rounded=0;whiteSpace=wrap;html=1;fontSize=18;" vertex="1" parent="84">
                    <mxGeometry width="143.6" height="160" as="geometry"/>
                </mxCell>
                <mxCell id="86" value="" style="verticalLabelPosition=bottom;shadow=0;dashed=0;align=center;html=1;verticalAlign=top;strokeWidth=1;shape=mxgraph.mockup.containers.userMale;strokeColor=#666666;strokeColor2=#008cff;" vertex="1" parent="84">
                    <mxGeometry x="19.200000000000003" y="10" width="96" height="100" as="geometry"/>
                </mxCell>
                <mxCell id="87" value="&lt;font style=&quot;font-size: 18px&quot;&gt;Nguyễn Văn A&lt;/font&gt;" style="text;strokeColor=none;fillColor=none;html=1;fontSize=24;fontStyle=1;verticalAlign=middle;align=center;" vertex="1" parent="84">
                    <mxGeometry x="9.600000000000001" y="120" width="124.8" height="30" as="geometry"/>
                </mxCell>
                <mxCell id="104" value="" style="group" vertex="1" connectable="0" parent="3">
                    <mxGeometry x="600" y="480" width="143.6" height="160" as="geometry"/>
                </mxCell>
                <mxCell id="105" value="" style="shape=ext;double=1;rounded=0;whiteSpace=wrap;html=1;fontSize=18;" vertex="1" parent="104">
                    <mxGeometry width="143.6" height="160" as="geometry"/>
                </mxCell>
                <mxCell id="106" value="" style="verticalLabelPosition=bottom;shadow=0;dashed=0;align=center;html=1;verticalAlign=top;strokeWidth=1;shape=mxgraph.mockup.containers.userMale;strokeColor=#666666;strokeColor2=#008cff;" vertex="1" parent="104">
                    <mxGeometry x="19.200000000000003" y="10" width="96" height="100" as="geometry"/>
                </mxCell>
                <mxCell id="107" value="&lt;font style=&quot;font-size: 18px&quot;&gt;Nguyễn Văn A&lt;/font&gt;" style="text;strokeColor=none;fillColor=none;html=1;fontSize=24;fontStyle=1;verticalAlign=middle;align=center;" vertex="1" parent="104">
                    <mxGeometry x="9.600000000000001" y="120" width="124.8" height="30" as="geometry"/>
                </mxCell>
                <mxCell id="112" value="" style="group" vertex="1" connectable="0" parent="3">
                    <mxGeometry x="970" y="275" width="143.6" height="160" as="geometry"/>
                </mxCell>
                <mxCell id="113" value="" style="shape=ext;double=1;rounded=0;whiteSpace=wrap;html=1;fontSize=18;" vertex="1" parent="112">
                    <mxGeometry width="143.6" height="160" as="geometry"/>
                </mxCell>
                <mxCell id="114" value="" style="verticalLabelPosition=bottom;shadow=0;dashed=0;align=center;html=1;verticalAlign=top;strokeWidth=1;shape=mxgraph.mockup.containers.userMale;strokeColor=#666666;strokeColor2=#008cff;" vertex="1" parent="112">
                    <mxGeometry x="19.200000000000003" y="10" width="96" height="100" as="geometry"/>
                </mxCell>
                <mxCell id="115" value="&lt;font style=&quot;font-size: 18px&quot;&gt;Nguyễn Văn A&lt;/font&gt;" style="text;strokeColor=none;fillColor=none;html=1;fontSize=24;fontStyle=1;verticalAlign=middle;align=center;" vertex="1" parent="112">
                    <mxGeometry x="9.600000000000001" y="120" width="124.8" height="30" as="geometry"/>
                </mxCell>
                <mxCell id="80" value="" style="group" vertex="1" connectable="0" parent="1">
                    <mxGeometry x="610" y="450" width="143.6" height="160" as="geometry"/>
                </mxCell>
                <mxCell id="81" value="" style="shape=ext;double=1;rounded=0;whiteSpace=wrap;html=1;fontSize=18;" vertex="1" parent="80">
                    <mxGeometry width="143.6" height="160" as="geometry"/>
                </mxCell>
                <mxCell id="82" value="" style="verticalLabelPosition=bottom;shadow=0;dashed=0;align=center;html=1;verticalAlign=top;strokeWidth=1;shape=mxgraph.mockup.containers.userMale;strokeColor=#666666;strokeColor2=#008cff;" vertex="1" parent="80">
                    <mxGeometry x="19.200000000000003" y="10" width="96" height="100" as="geometry"/>
                </mxCell>
                <mxCell id="83" value="&lt;font style=&quot;font-size: 18px&quot;&gt;Nguyễn Văn A&lt;/font&gt;" style="text;strokeColor=none;fillColor=none;html=1;fontSize=24;fontStyle=1;verticalAlign=middle;align=center;" vertex="1" parent="80">
                    <mxGeometry x="9.600000000000001" y="120" width="124.8" height="30" as="geometry"/>
                </mxCell>
                <mxCell id="88" value="" style="group" vertex="1" connectable="0" parent="1">
                    <mxGeometry x="990" y="450" width="143.6" height="160" as="geometry"/>
                </mxCell>
                <mxCell id="89" value="" style="shape=ext;double=1;rounded=0;whiteSpace=wrap;html=1;fontSize=18;" vertex="1" parent="88">
                    <mxGeometry width="143.6" height="160" as="geometry"/>
                </mxCell>
                <mxCell id="90" value="" style="verticalLabelPosition=bottom;shadow=0;dashed=0;align=center;html=1;verticalAlign=top;strokeWidth=1;shape=mxgraph.mockup.containers.userMale;strokeColor=#666666;strokeColor2=#008cff;" vertex="1" parent="88">
                    <mxGeometry x="19.200000000000003" y="10" width="96" height="100" as="geometry"/>
                </mxCell>
                <mxCell id="91" value="&lt;font style=&quot;font-size: 18px&quot;&gt;Nguyễn Văn A&lt;/font&gt;" style="text;strokeColor=none;fillColor=none;html=1;fontSize=24;fontStyle=1;verticalAlign=middle;align=center;" vertex="1" parent="88">
                    <mxGeometry x="9.600000000000001" y="120" width="124.8" height="30" as="geometry"/>
                </mxCell>
                <mxCell id="92" value="" style="group" vertex="1" connectable="0" parent="1">
                    <mxGeometry x="240" y="640" width="143.6" height="160" as="geometry"/>
                </mxCell>
                <mxCell id="93" value="" style="shape=ext;double=1;rounded=0;whiteSpace=wrap;html=1;fontSize=18;" vertex="1" parent="92">
                    <mxGeometry width="143.6" height="160" as="geometry"/>
                </mxCell>
                <mxCell id="94" value="" style="verticalLabelPosition=bottom;shadow=0;dashed=0;align=center;html=1;verticalAlign=top;strokeWidth=1;shape=mxgraph.mockup.containers.userMale;strokeColor=#666666;strokeColor2=#008cff;" vertex="1" parent="92">
                    <mxGeometry x="19.200000000000003" y="10" width="96" height="100" as="geometry"/>
                </mxCell>
                <mxCell id="95" value="&lt;font style=&quot;font-size: 18px&quot;&gt;Nguyễn Văn A&lt;/font&gt;" style="text;strokeColor=none;fillColor=none;html=1;fontSize=24;fontStyle=1;verticalAlign=middle;align=center;" vertex="1" parent="92">
                    <mxGeometry x="9.600000000000001" y="120" width="124.8" height="30" as="geometry"/>
                </mxCell>
                <mxCell id="96" value="" style="group" vertex="1" connectable="0" parent="1">
                    <mxGeometry x="420" y="640" width="143.6" height="160" as="geometry"/>
                </mxCell>
                <mxCell id="97" value="" style="shape=ext;double=1;rounded=0;whiteSpace=wrap;html=1;fontSize=18;" vertex="1" parent="96">
                    <mxGeometry width="143.6" height="160" as="geometry"/>
                </mxCell>
                <mxCell id="98" value="" style="verticalLabelPosition=bottom;shadow=0;dashed=0;align=center;html=1;verticalAlign=top;strokeWidth=1;shape=mxgraph.mockup.containers.userMale;strokeColor=#666666;strokeColor2=#008cff;" vertex="1" parent="96">
                    <mxGeometry x="19.200000000000003" y="10" width="96" height="100" as="geometry"/>
                </mxCell>
                <mxCell id="99" value="&lt;font style=&quot;font-size: 18px&quot;&gt;Nguyễn Văn A&lt;/font&gt;" style="text;strokeColor=none;fillColor=none;html=1;fontSize=24;fontStyle=1;verticalAlign=middle;align=center;" vertex="1" parent="96">
                    <mxGeometry x="9.600000000000001" y="120" width="124.8" height="30" as="geometry"/>
                </mxCell>
                <mxCell id="100" value="" style="group" vertex="1" connectable="0" parent="1">
                    <mxGeometry x="610" y="640" width="143.6" height="160" as="geometry"/>
                </mxCell>
                <mxCell id="101" value="" style="shape=ext;double=1;rounded=0;whiteSpace=wrap;html=1;fontSize=18;" vertex="1" parent="100">
                    <mxGeometry width="143.6" height="160" as="geometry"/>
                </mxCell>
                <mxCell id="102" value="" style="verticalLabelPosition=bottom;shadow=0;dashed=0;align=center;html=1;verticalAlign=top;strokeWidth=1;shape=mxgraph.mockup.containers.userMale;strokeColor=#666666;strokeColor2=#008cff;" vertex="1" parent="100">
                    <mxGeometry x="19.200000000000003" y="10" width="96" height="100" as="geometry"/>
                </mxCell>
                <mxCell id="103" value="&lt;font style=&quot;font-size: 18px&quot;&gt;Nguyễn Văn A&lt;/font&gt;" style="text;strokeColor=none;fillColor=none;html=1;fontSize=24;fontStyle=1;verticalAlign=middle;align=center;" vertex="1" parent="100">
                    <mxGeometry x="9.600000000000001" y="120" width="124.8" height="30" as="geometry"/>
                </mxCell>
                <mxCell id="108" value="" style="group" vertex="1" connectable="0" parent="1">
                    <mxGeometry x="980" y="650" width="143.6" height="160" as="geometry"/>
                </mxCell>
                <mxCell id="109" value="" style="shape=ext;double=1;rounded=0;whiteSpace=wrap;html=1;fontSize=18;" vertex="1" parent="108">
                    <mxGeometry width="143.6" height="160" as="geometry"/>
                </mxCell>
                <mxCell id="110" value="" style="verticalLabelPosition=bottom;shadow=0;dashed=0;align=center;html=1;verticalAlign=top;strokeWidth=1;shape=mxgraph.mockup.containers.userMale;strokeColor=#666666;strokeColor2=#008cff;" vertex="1" parent="108">
                    <mxGeometry x="19.200000000000003" y="10" width="96" height="100" as="geometry"/>
                </mxCell>
                <mxCell id="111" value="&lt;font style=&quot;font-size: 18px&quot;&gt;Nguyễn Văn A&lt;/font&gt;" style="text;strokeColor=none;fillColor=none;html=1;fontSize=24;fontStyle=1;verticalAlign=middle;align=center;" vertex="1" parent="108">
                    <mxGeometry x="9.600000000000001" y="120" width="124.8" height="30" as="geometry"/>
                </mxCell>
                <mxCell id="116" value="" style="group" vertex="1" connectable="0" parent="1">
                    <mxGeometry x="1170" y="650" width="143.6" height="160" as="geometry"/>
                </mxCell>
                <mxCell id="117" value="" style="shape=ext;double=1;rounded=0;whiteSpace=wrap;html=1;fontSize=18;" vertex="1" parent="116">
                    <mxGeometry width="143.6" height="160" as="geometry"/>
                </mxCell>
                <mxCell id="118" value="" style="verticalLabelPosition=bottom;shadow=0;dashed=0;align=center;html=1;verticalAlign=top;strokeWidth=1;shape=mxgraph.mockup.containers.userMale;strokeColor=#666666;strokeColor2=#008cff;" vertex="1" parent="116">
                    <mxGeometry x="19.200000000000003" y="10" width="96" height="100" as="geometry"/>
                </mxCell>
                <mxCell id="119" value="&lt;font style=&quot;font-size: 18px&quot;&gt;Nguyễn Văn A&lt;/font&gt;" style="text;strokeColor=none;fillColor=none;html=1;fontSize=24;fontStyle=1;verticalAlign=middle;align=center;" vertex="1" parent="116">
                    <mxGeometry x="9.600000000000001" y="120" width="124.8" height="30" as="geometry"/>
                </mxCell>
            </root>
        </mxGraphModel>
    </diagram>
</mxfile>